#!OML:ASF H:\BabyWalks\Project 1\Capture day 1\Session 1\baby.ASF
:FULLY-SPECIFIED
:DEGREES
579
root 21.5857 17.556 -0.282633 -211.32 87.0281 -216.491
lowerback 21.7993 0.0350572 0.760895
upperback 6.06913 0.85386 2.65861
thorax -5.58079 0.597849 2.19069
lowerneck 0.369589 0.160274 8.42655
upperneck -3.92538 0.0179966 -11.6437
head -1.20174 0.0998006 -4.89154
rclavicle 3.57812e-015 5.56597e-015
rhumerus -42.9473 10.8724 -79.7982
rradius 52.1913
rwrist -2.95943
rhand -27.0423 -24.0414
rfingers 7.12502
rthumb -0.460934 -54.0206
lclavicle 3.57812e-015 5.56597e-015
lhumerus -47.0144 -3.02953 77.4002
lradius 63.7701
lwrist -0.497651
lhand -8.86613 1.12531
lfingers 7.12502
lthumb 17.0753 30.3949
rfemur -21.6631 12.2168 18.2473
rtibia 35.5385
rfoot -18.5022 8.27536
rtoes 4.52332
lfemur -11.0259 -6.94022 -13.2087
ltibia 53.8975
lfoot -2.97249 -28.0875
ltoes -13.9665
580
root 21.7268 17.4806 -0.271037 -196.796 87.6566 -201.689
lowerback 21.9902 -0.0446061 1.54191
upperback 6.13299 0.962555 2.98275
thorax -5.60862 0.652742 2.06582
lowerneck 0.933236 0.213102 8.6056
upperneck -4.56707 0.0786287 -11.7836
head -1.47552 0.155069 -4.97174
rclavicle 7.95139e-016 -3.97569e-015
rhumerus -42.6423 10.1193 -79.2199
rradius 50.968
rwrist -2.25483
rhand -27.0195 -24.2292
rfingers 7.12502
rthumb -0.438904 -54.2085
lclavicle 7.95139e-016 -3.97569e-015
lhumerus -47.2276 -2.39088 77.6086
lradius 61.327
lwrist -1.50386
lhand -9.09022 1.44187
lfingers 7.12502
lthumb 16.8596 30.73
rfemur -21.3801 12.2931 19.599
rtibia 36.6107
rfoot -19.1791 8.33341
rtoes 5.22764
lfemur -11.3148 -7.02334 -11.9559
ltibia 55.4164
lfoot -3.69654 -29.1587
ltoes -13.6868
581
root 21.8677 17.4116 -0.261849 -171.812 88.0788 -176.525
lowerback 22.1054 -0.119784 2.35866
upperback 6.2021 1.08684 3.32552
thorax -5.58962 0.715685 1.93719
lowerneck 1.33934 0.30614 8.74735
upperneck -5.07928 0.194426 -11.8889
head -1.67967 0.231525 -5.03578
rclavicle -2.38542e-015 -1.59028e-014
rhumerus -42.2442 9.40491 -78.6247
rradius 49.6186
rwrist -1.45725
rhand -26.9224 -24.4632
rfingers 7.12502
rthumb -0.345148 -54.4426
lclavicle -2.38542e-015 -1.59028e-014
lhumerus -47.3816 -1.73446 77.8606
lradius 58.7697
lwrist -2.57664
lhand -9.29319 1.81176
lfingers 7.12502
lthumb 16.6642 31.1164
rfemur -21.1405 12.4426 20.9784
rtibia 37.5455
rfoot -19.8893 8.39838
rtoes 5.58497
lfemur -11.7724 -7.07707 -10.635
ltibia 56.9538
lfoot -4.69432 -30.1282
ltoes -13.5266
582
root 22.0074 17.3434 -0.255774 -142.542 88.0677 -147.182
lowerback 22.1388 -0.178232 3.08663
upperback 6.27245 1.2082 3.64993
thorax -5.5259 0.778019 1.84103
lowerneck 1.55975 0.439096 8.85019
upperneck -5.41943 0.365391 -11.9579
head -1.79683 0.327581 -5.08165
rclavicle 5.1684e-015 3.73715e-014
rhumerus -41.7662 8.7233 -78.0211
rradius 48.1601
rwrist -0.541743
rhand -26.707 -24.7529
rfingers 7.12502
rthumb -0.137058 -54.7326
lclavicle 5.1684e-015 3.73715e-014
lhumerus -47.4851 -1.09279 78.1491
lradius 56.1304
lwrist -3.72954
lhand -9.39563 2.22873
lfingers 7.12502
lthumb 16.5656 31.5417
rfemur -20.9658 12.5649 22.2497
rtibia 38.3517
rfoot -20.5568 8.4691
rtoes 5.71165
lfemur -12.4034 -7.11259 -9.40082
ltibia 58.4714
lfoot -5.90019 -30.9368
ltoes -13.4379
583
root 22.1475 17.2848 -0.251862 -121.421 87.772 -126.075
lowerback 22.1037 -0.208741 3.61768
upperback 6.34429 1.31129 3.91715
thorax -5.4261 0.832182 1.8009
lowerneck 1.60113 0.602901 8.91225
upperneck -5.58879 0.579144 -11.9833
head -1.82978 0.437051 -5.10549
rclavicle 1.51076e-014 4.53229e-014
rhumerus -41.2288 8.06251 -77.4223
rradius 46.6296
rwrist 0.478156
rhand -26.326 -25.0977
rfingers 7.12502
rthumb 0.230903 -55.0773
lclavicle 1.51076e-014 4.53229e-014
lhumerus -47.5387 -0.509583 78.4692
lradius 53.4651
lwrist -4.95276
lhand -9.29146 2.68331
lfingers 7.12502
lthumb 16.6659 31.9878
rfemur -20.7977 12.6431 23.2765
rtibia 39.0279
rfoot -21.2367 8.50087
rtoes 5.68433
lfemur -13.1522 -7.14261 -8.40875
ltibia 59.8814
lfoot -7.24735 -31.5127
ltoes -13.4329
584
root 22.289 17.2378 -0.249962 -108.722 87.4757 -113.441
lowerback 22.029 -0.209377 3.92104
upperback 6.41547 1.38995 4.10134
thorax -5.30872 0.874462 1.80744
lowerneck 1.52643 0.7766 8.94683
upperneck -5.63875 0.807609 -11.9694
head -1.80716 0.548324 -5.11056
rclavicle -1.03368e-014 -3.4191e-014
rhumerus -40.6809 7.38878 -76.8481
rradius 45.076
rwrist 1.58383
rhand -25.7916 -25.4754
rfingers 7.12502
rthumb 0.747047 -55.4538
lclavicle -1.03368e-014 -3.4191e-014
lhumerus -47.5604 -0.0293284 78.8167
lradius 50.8417
lwrist -6.2621
lhand -8.88866 3.15733
lfingers 7.12502
lthumb 17.0536 32.4288
rfemur -20.6119 12.6978 23.9951
rtibia 39.6008
rfoot -21.9112 8.71268
rtoes 5.91003
lfemur -13.9682 -7.18099 -7.73872
ltibia 61.1393
lfoot -8.6883 -31.8132
ltoes -13.556
